<svg xmlns="http://www.w3.org/2000/svg" xmlns:xlink="http://www.w3.org/1999/xlink" width="212" zoomAndPan="magnify" viewBox="0 0 159 57.749997" height="77" preserveAspectRatio="xMidYMid meet" version="1.0"><defs><g/><clipPath id="3e536fdfe4"><path d="M 6.09375 5.75 L 53.886719 5.75 L 53.886719 52 L 6.09375 52 Z M 6.09375 5.75 " clip-rule="nonzero"/></clipPath></defs><g clip-path="url(#3e536fdfe4)"><path fill="#fdfdfd" d="M 53.816406 13.988281 L 53.816406 28.910156 C 53.816406 28.988281 53.804688 29.054688 53.777344 29.125 C 51.804688 34.925781 49.042969 40.773438 45.570312 46.507812 L 46.15625 50.945312 C 46.207031 51.3125 45.945312 51.648438 45.578125 51.707031 C 45.550781 51.707031 45.523438 51.714844 45.492188 51.714844 C 45.15625 51.714844 44.867188 51.464844 44.828125 51.128906 L 44.214844 46.460938 C 44.195312 46.308594 44.222656 46.152344 44.308594 46.019531 C 47.773438 40.332031 50.523438 34.539062 52.488281 28.804688 L 52.488281 13.988281 C 52.488281 13.949219 52.449219 13.910156 52.410156 13.910156 C 51.027344 13.910156 49.917969 15.039062 49.832031 16.527344 L 49.253906 26.582031 C 49.246094 26.707031 49.207031 26.832031 49.128906 26.9375 L 44.378906 33.433594 L 43.328125 38.140625 C 43.25 38.503906 42.886719 38.734375 42.53125 38.648438 C 42.164062 38.570312 41.933594 38.207031 42.019531 37.851562 L 44.164062 28.007812 C 44.347656 27.152344 44.050781 26.417969 43.394531 26.148438 C 42.742188 25.882812 41.789062 26.0625 41.230469 27.429688 L 36.527344 38.984375 C 35.863281 40.613281 35.648438 42.246094 35.804688 44.480469 L 36.265625 50.984375 C 36.296875 51.359375 36.015625 51.675781 35.640625 51.707031 C 35.273438 51.734375 34.949219 51.457031 34.917969 51.078125 L 34.457031 44.574219 C 34.285156 42.121094 34.535156 40.304688 35.273438 38.476562 L 39.980469 26.921875 C 40.847656 24.792969 42.617188 24.378906 43.90625 24.898438 C 45.175781 25.417969 45.820312 26.777344 45.492188 28.285156 L 45.078125 30.171875 L 47.917969 26.292969 L 48.484375 16.441406 C 48.609375 14.230469 50.292969 12.554688 52.402344 12.554688 C 53.179688 12.566406 53.816406 13.199219 53.816406 13.988281 Z M 19.929688 26.921875 C 19.0625 24.792969 17.292969 24.378906 16.011719 24.898438 C 14.734375 25.417969 14.097656 26.777344 14.425781 28.285156 L 14.839844 30.171875 L 12 26.292969 L 11.433594 16.441406 C 11.308594 14.230469 9.625 12.566406 7.515625 12.566406 C 6.726562 12.566406 6.09375 13.199219 6.09375 13.988281 L 6.09375 28.910156 C 6.09375 28.988281 6.101562 29.054688 6.132812 29.125 C 8.09375 34.914062 10.855469 40.765625 14.339844 46.507812 L 13.75 50.945312 C 13.703125 51.3125 13.964844 51.648438 14.328125 51.707031 C 14.359375 51.707031 14.386719 51.714844 14.414062 51.714844 C 14.753906 51.714844 15.039062 51.464844 15.078125 51.128906 L 15.695312 46.460938 C 15.714844 46.308594 15.683594 46.152344 15.597656 46.019531 C 12.125 40.324219 9.375 34.53125 7.421875 28.804688 L 7.421875 13.988281 C 7.421875 13.949219 7.460938 13.910156 7.496094 13.910156 C 8.882812 13.910156 9.988281 15.039062 10.074219 16.527344 L 10.652344 26.582031 C 10.664062 26.707031 10.703125 26.832031 10.777344 26.9375 L 15.53125 33.433594 L 16.5625 38.140625 C 16.636719 38.503906 17.003906 38.734375 17.359375 38.648438 C 17.726562 38.570312 17.957031 38.207031 17.871094 37.851562 L 15.722656 28.007812 C 15.542969 27.152344 15.839844 26.417969 16.492188 26.148438 C 17.148438 25.882812 18.101562 26.0625 18.660156 27.429688 L 23.363281 38.984375 C 24.027344 40.613281 24.238281 42.246094 24.085938 44.480469 L 23.625 50.984375 C 23.59375 51.359375 23.875 51.675781 24.25 51.707031 C 24.613281 51.734375 24.941406 51.457031 24.96875 51.078125 L 25.433594 44.574219 C 25.605469 42.121094 25.355469 40.304688 24.613281 38.476562 Z M 30.261719 35.472656 C 30.164062 35.523438 30.058594 35.550781 29.953125 35.550781 C 29.847656 35.550781 29.742188 35.523438 29.644531 35.472656 C 26.75 33.972656 24.585938 32.269531 23.21875 30.414062 C 22.027344 28.796875 21.46875 27.0625 21.601562 25.417969 C 21.652344 24.851562 21.777344 24.304688 21.976562 23.792969 L 15.222656 23.792969 C 14.847656 23.792969 14.550781 23.496094 14.550781 23.121094 L 14.550781 17.328125 C 14.550781 15.355469 16.195312 13.738281 18.265625 13.625 C 17.609375 12.746094 17.261719 11.5625 17.261719 10.410156 C 17.261719 8.425781 18.878906 6.8125 20.863281 6.8125 C 22.84375 6.8125 24.460938 8.425781 24.460938 10.410156 C 24.460938 11.5625 24.113281 12.746094 23.460938 13.625 C 23.921875 13.652344 24.382812 13.75 24.816406 13.929688 C 25.5 13.421875 26.355469 13.101562 27.289062 13.074219 C 26.546875 12.140625 26.164062 10.832031 26.164062 9.574219 C 26.164062 7.464844 27.875 5.761719 29.972656 5.761719 C 32.070312 5.761719 33.785156 7.476562 33.785156 9.574219 C 33.785156 10.832031 33.398438 12.140625 32.65625 13.074219 C 33.589844 13.101562 34.449219 13.421875 35.128906 13.929688 C 35.554688 13.757812 36.015625 13.652344 36.476562 13.625 C 35.8125 12.746094 35.476562 11.5625 35.476562 10.410156 C 35.476562 8.425781 37.09375 6.8125 39.074219 6.8125 C 41.058594 6.8125 42.65625 8.425781 42.65625 10.410156 C 42.65625 11.5625 42.308594 12.746094 41.652344 13.625 C 43.722656 13.730469 45.367188 15.355469 45.367188 17.328125 L 45.367188 23.121094 C 45.367188 23.496094 45.070312 23.792969 44.695312 23.792969 L 37.941406 23.792969 C 38.140625 24.304688 38.265625 24.851562 38.316406 25.417969 C 38.441406 27.0625 37.882812 28.796875 36.699219 30.414062 C 35.324219 32.269531 33.167969 33.972656 30.261719 35.472656 Z M 41.421875 14.960938 L 36.6875 14.960938 C 36.496094 14.960938 36.304688 14.980469 36.121094 15.019531 C 36.488281 15.59375 36.6875 16.277344 36.6875 16.992188 L 36.6875 21.859375 C 36.871094 22.042969 37.035156 22.234375 37.191406 22.4375 L 40.972656 22.4375 L 40.972656 18.761719 C 40.972656 18.386719 41.269531 18.085938 41.644531 18.085938 C 42.019531 18.085938 42.316406 18.386719 42.316406 18.761719 L 42.316406 22.4375 L 44.011719 22.4375 L 44.011719 17.316406 C 44.019531 16.019531 42.855469 14.960938 41.421875 14.960938 Z M 36.804688 10.410156 C 36.804688 11.738281 37.496094 13.613281 39.054688 13.613281 C 40.605469 13.613281 41.308594 11.738281 41.308594 10.410156 C 41.308594 9.167969 40.296875 8.15625 39.054688 8.15625 C 37.816406 8.15625 36.804688 9.167969 36.804688 10.410156 Z M 27.492188 9.5625 C 27.492188 11.015625 28.261719 13.066406 29.953125 13.066406 C 31.648438 13.066406 32.417969 11.015625 32.417969 9.5625 C 32.417969 8.207031 31.3125 7.101562 29.953125 7.101562 C 28.597656 7.101562 27.492188 8.207031 27.492188 9.5625 Z M 24.566406 17 L 24.566406 20.917969 C 24.738281 20.828125 24.921875 20.761719 25.105469 20.695312 C 25.402344 20.597656 25.710938 20.53125 26.007812 20.492188 L 26.007812 17.566406 C 26.007812 17.191406 26.308594 16.894531 26.683594 16.894531 C 27.058594 16.894531 27.355469 17.191406 27.355469 17.566406 L 27.355469 20.570312 C 28.183594 20.761719 28.945312 21.222656 29.558594 21.9375 L 29.953125 22.378906 L 30.347656 21.9375 C 30.964844 21.234375 31.734375 20.773438 32.550781 20.570312 L 32.550781 17.566406 C 32.550781 17.191406 32.851562 16.894531 33.226562 16.894531 C 33.601562 16.894531 33.898438 17.191406 33.898438 17.566406 L 33.898438 20.492188 C 34.199219 20.523438 34.496094 20.589844 34.804688 20.695312 C 34.988281 20.753906 35.167969 20.828125 35.34375 20.917969 L 35.34375 17 C 35.34375 15.578125 34.074219 14.410156 32.503906 14.410156 L 27.414062 14.410156 C 25.847656 14.410156 24.566406 15.566406 24.566406 17 Z M 18.601562 10.410156 C 18.601562 11.738281 19.292969 13.613281 20.851562 13.613281 C 22.410156 13.613281 23.105469 11.738281 23.105469 10.410156 C 23.105469 9.167969 22.09375 8.15625 20.851562 8.15625 C 19.609375 8.15625 18.601562 9.167969 18.601562 10.410156 Z M 22.71875 22.445312 C 22.871094 22.242188 23.046875 22.050781 23.21875 21.867188 L 23.21875 17 C 23.21875 16.277344 23.429688 15.605469 23.785156 15.019531 C 23.605469 14.980469 23.410156 14.960938 23.21875 14.960938 L 18.484375 14.960938 C 17.050781 14.960938 15.886719 16.019531 15.886719 17.316406 L 15.886719 22.4375 L 17.582031 22.4375 L 17.582031 18.761719 C 17.582031 18.386719 17.878906 18.085938 18.253906 18.085938 C 18.628906 18.085938 18.929688 18.386719 18.929688 18.761719 L 18.929688 22.4375 L 22.71875 22.4375 Z M 36.96875 25.515625 C 36.824219 23.621094 35.5625 22.367188 34.378906 21.972656 C 33.265625 21.597656 32.167969 21.917969 31.359375 22.832031 L 30.464844 23.851562 C 30.339844 23.996094 30.15625 24.082031 29.953125 24.082031 C 29.753906 24.082031 29.578125 23.996094 29.445312 23.851562 L 28.550781 22.832031 C 27.960938 22.167969 27.230469 21.820312 26.441406 21.820312 C 26.144531 21.820312 25.835938 21.867188 25.527344 21.972656 C 24.34375 22.367188 23.085938 23.621094 22.941406 25.515625 C 22.710938 28.488281 25.257812 31.605469 29.953125 34.109375 C 34.648438 31.605469 37.199219 28.488281 36.96875 25.515625 Z M 33.6875 26.910156 L 33.6875 29.113281 C 33.6875 29.488281 33.390625 29.789062 33.015625 29.789062 L 31.726562 29.789062 L 31.726562 31.078125 C 31.726562 31.453125 31.425781 31.75 31.050781 31.75 L 28.847656 31.75 C 28.472656 31.75 28.175781 31.453125 28.175781 31.078125 L 28.175781 29.789062 L 26.886719 29.789062 C 26.511719 29.789062 26.210938 29.488281 26.210938 29.113281 L 26.210938 26.910156 C 26.210938 26.535156 26.511719 26.238281 26.886719 26.238281 L 28.175781 26.238281 L 28.175781 24.949219 C 28.175781 24.574219 28.472656 24.273438 28.847656 24.273438 L 31.050781 24.273438 C 31.425781 24.273438 31.726562 24.574219 31.726562 24.949219 L 31.726562 26.238281 L 33.015625 26.238281 C 33.390625 26.238281 33.6875 26.535156 33.6875 26.910156 Z M 32.339844 27.585938 L 31.050781 27.585938 C 30.675781 27.585938 30.378906 27.285156 30.378906 26.910156 L 30.378906 25.621094 L 29.519531 25.621094 L 29.519531 26.910156 C 29.519531 27.285156 29.222656 27.585938 28.847656 27.585938 L 27.558594 27.585938 L 27.558594 28.441406 L 28.847656 28.441406 C 29.222656 28.441406 29.519531 28.738281 29.519531 29.113281 L 29.519531 30.402344 L 30.378906 30.402344 L 30.378906 29.113281 C 30.378906 28.738281 30.675781 28.441406 31.050781 28.441406 L 32.339844 28.441406 Z M 32.339844 27.585938 " fill-opacity="1" fill-rule="nonzero"/></g><g fill="#ffffff" fill-opacity="1"><g transform="translate(66.428026, 44.569394)"><g><path d="M 6.046875 -8.328125 L 6.046875 -7.4375 L 3.765625 -7.4375 L 3.765625 0 L 2.6875 0 L 2.6875 -7.4375 L 0.40625 -7.4375 L 0.40625 -8.328125 Z M 6.046875 -8.328125 "/></g></g></g><g fill="#ffffff" fill-opacity="1"><g transform="translate(72.8857, 44.569394)"><g><path d="M 5.296875 0 L 3.3125 -3.40625 L 2 -3.40625 L 2 0 L 0.921875 0 L 0.921875 -8.328125 L 3.609375 -8.328125 C 4.234375 -8.328125 4.757812 -8.21875 5.1875 -8 C 5.625 -7.78125 5.953125 -7.488281 6.171875 -7.125 C 6.390625 -6.757812 6.5 -6.34375 6.5 -5.875 C 6.5 -5.300781 6.332031 -4.796875 6 -4.359375 C 5.664062 -3.921875 5.171875 -3.628906 4.515625 -3.484375 L 6.59375 0 Z M 2 -4.28125 L 3.609375 -4.28125 C 4.191406 -4.28125 4.628906 -4.421875 4.921875 -4.703125 C 5.222656 -4.992188 5.375 -5.382812 5.375 -5.875 C 5.375 -6.363281 5.226562 -6.742188 4.9375 -7.015625 C 4.644531 -7.285156 4.203125 -7.421875 3.609375 -7.421875 L 2 -7.421875 Z M 2 -4.28125 "/></g></g></g><g fill="#ffffff" fill-opacity="1"><g transform="translate(80.143127, 44.569394)"><g><path d="M 5.84375 -1.84375 L 2.203125 -1.84375 L 1.546875 0 L 0.390625 0 L 3.40625 -8.265625 L 4.65625 -8.265625 L 7.65625 0 L 6.5 0 Z M 5.53125 -2.734375 L 4.015625 -6.9375 L 2.515625 -2.734375 Z M 5.53125 -2.734375 "/></g></g></g><g fill="#ffffff" fill-opacity="1"><g transform="translate(88.188365, 44.569394)"><g><path d="M 7.46875 0 L 6.375 0 L 2 -6.625 L 2 0 L 0.921875 0 L 0.921875 -8.328125 L 2 -8.328125 L 6.375 -1.71875 L 6.375 -8.328125 L 7.46875 -8.328125 Z M 7.46875 0 "/></g></g></g><g fill="#ffffff" fill-opacity="1"><g transform="translate(96.579754, 44.569394)"><g><path d="M 3.5625 0.078125 C 3.007812 0.078125 2.515625 -0.015625 2.078125 -0.203125 C 1.648438 -0.398438 1.3125 -0.671875 1.0625 -1.015625 C 0.8125 -1.367188 0.6875 -1.769531 0.6875 -2.21875 L 1.84375 -2.21875 C 1.875 -1.832031 2.03125 -1.503906 2.3125 -1.234375 C 2.601562 -0.960938 3.019531 -0.828125 3.5625 -0.828125 C 4.070312 -0.828125 4.476562 -0.957031 4.78125 -1.21875 C 5.082031 -1.476562 5.234375 -1.8125 5.234375 -2.21875 C 5.234375 -2.539062 5.144531 -2.800781 4.96875 -3 C 4.789062 -3.195312 4.570312 -3.347656 4.3125 -3.453125 C 4.050781 -3.554688 3.695312 -3.664062 3.25 -3.78125 C 2.695312 -3.925781 2.253906 -4.066406 1.921875 -4.203125 C 1.597656 -4.347656 1.316406 -4.570312 1.078125 -4.875 C 0.847656 -5.1875 0.734375 -5.601562 0.734375 -6.125 C 0.734375 -6.570312 0.847656 -6.972656 1.078125 -7.328125 C 1.304688 -7.679688 1.628906 -7.953125 2.046875 -8.140625 C 2.460938 -8.328125 2.941406 -8.421875 3.484375 -8.421875 C 4.265625 -8.421875 4.898438 -8.226562 5.390625 -7.84375 C 5.890625 -7.457031 6.175781 -6.941406 6.25 -6.296875 L 5.046875 -6.296875 C 5.003906 -6.609375 4.835938 -6.882812 4.546875 -7.125 C 4.253906 -7.375 3.863281 -7.5 3.375 -7.5 C 2.925781 -7.5 2.554688 -7.378906 2.265625 -7.140625 C 1.984375 -6.910156 1.84375 -6.582031 1.84375 -6.15625 C 1.84375 -5.851562 1.925781 -5.609375 2.09375 -5.421875 C 2.269531 -5.234375 2.484375 -5.085938 2.734375 -4.984375 C 2.984375 -4.878906 3.332031 -4.765625 3.78125 -4.640625 C 4.332031 -4.492188 4.773438 -4.34375 5.109375 -4.1875 C 5.441406 -4.039062 5.726562 -3.816406 5.96875 -3.515625 C 6.207031 -3.210938 6.328125 -2.796875 6.328125 -2.265625 C 6.328125 -1.859375 6.21875 -1.472656 6 -1.109375 C 5.789062 -0.753906 5.472656 -0.46875 5.046875 -0.25 C 4.628906 -0.03125 4.132812 0.078125 3.5625 0.078125 Z M 3.5625 0.078125 "/></g></g></g><g fill="#ffffff" fill-opacity="1"><g transform="translate(103.586507, 44.569394)"><g><path d="M 6.484375 -5.890625 C 6.484375 -5.191406 6.242188 -4.613281 5.765625 -4.15625 C 5.296875 -3.695312 4.578125 -3.46875 3.609375 -3.46875 L 2 -3.46875 L 2 0 L 0.921875 0 L 0.921875 -8.328125 L 3.609375 -8.328125 C 4.546875 -8.328125 5.257812 -8.097656 5.75 -7.640625 C 6.238281 -7.179688 6.484375 -6.597656 6.484375 -5.890625 Z M 3.609375 -4.375 C 4.210938 -4.375 4.65625 -4.503906 4.9375 -4.765625 C 5.226562 -5.023438 5.375 -5.398438 5.375 -5.890625 C 5.375 -6.910156 4.785156 -7.421875 3.609375 -7.421875 L 2 -7.421875 L 2 -4.375 Z M 3.609375 -4.375 "/></g></g></g><g fill="#ffffff" fill-opacity="1"><g transform="translate(110.497773, 44.569394)"><g><path d="M 5.84375 -1.84375 L 2.203125 -1.84375 L 1.546875 0 L 0.390625 0 L 3.40625 -8.265625 L 4.65625 -8.265625 L 7.65625 0 L 6.5 0 Z M 5.53125 -2.734375 L 4.015625 -6.9375 L 2.515625 -2.734375 Z M 5.53125 -2.734375 "/></g></g></g><g fill="#ffffff" fill-opacity="1"><g transform="translate(118.543011, 44.569394)"><g><path d="M 5.296875 0 L 3.3125 -3.40625 L 2 -3.40625 L 2 0 L 0.921875 0 L 0.921875 -8.328125 L 3.609375 -8.328125 C 4.234375 -8.328125 4.757812 -8.21875 5.1875 -8 C 5.625 -7.78125 5.953125 -7.488281 6.171875 -7.125 C 6.390625 -6.757812 6.5 -6.34375 6.5 -5.875 C 6.5 -5.300781 6.332031 -4.796875 6 -4.359375 C 5.664062 -3.921875 5.171875 -3.628906 4.515625 -3.484375 L 6.59375 0 Z M 2 -4.28125 L 3.609375 -4.28125 C 4.191406 -4.28125 4.628906 -4.421875 4.921875 -4.703125 C 5.222656 -4.992188 5.375 -5.382812 5.375 -5.875 C 5.375 -6.363281 5.226562 -6.742188 4.9375 -7.015625 C 4.644531 -7.285156 4.203125 -7.421875 3.609375 -7.421875 L 2 -7.421875 Z M 2 -4.28125 "/></g></g></g><g fill="#ffffff" fill-opacity="1"><g transform="translate(125.800438, 44.569394)"><g><path d="M 2 -7.4375 L 2 -4.65625 L 5.03125 -4.65625 L 5.03125 -3.765625 L 2 -3.765625 L 2 -0.890625 L 5.390625 -0.890625 L 5.390625 0 L 0.921875 0 L 0.921875 -8.328125 L 5.390625 -8.328125 L 5.390625 -7.4375 Z M 2 -7.4375 "/></g></g></g><g fill="#ffffff" fill-opacity="1"><g transform="translate(131.923892, 44.569394)"><g><path d="M 7.46875 0 L 6.375 0 L 2 -6.625 L 2 0 L 0.921875 0 L 0.921875 -8.328125 L 2 -8.328125 L 6.375 -1.71875 L 6.375 -8.328125 L 7.46875 -8.328125 Z M 7.46875 0 "/></g></g></g><g fill="#ffffff" fill-opacity="1"><g transform="translate(140.31528, 44.569394)"><g><path d="M 6.046875 -8.328125 L 6.046875 -7.4375 L 3.765625 -7.4375 L 3.765625 0 L 2.6875 0 L 2.6875 -7.4375 L 0.40625 -7.4375 L 0.40625 -8.328125 Z M 6.046875 -8.328125 "/></g></g></g><g fill="#ffffff" fill-opacity="1"><g transform="translate(146.772954, 44.569394)"><g><path d="M 2 -7.4375 L 2 -4.65625 L 5.03125 -4.65625 L 5.03125 -3.765625 L 2 -3.765625 L 2 -0.890625 L 5.390625 -0.890625 L 5.390625 0 L 0.921875 0 L 0.921875 -8.328125 L 5.390625 -8.328125 L 5.390625 -7.4375 Z M 2 -7.4375 "/></g></g></g><g fill="#ffffff" fill-opacity="1"><g transform="translate(79.379769, 28.383196)"><g><path d="M 7.609375 -17.5625 C 8.546875 -17.5625 9.457031 -17.425781 10.34375 -17.15625 C 11.238281 -16.882812 11.898438 -16.613281 12.328125 -16.34375 L 12.96875 -15.9375 L 11.375 -12.796875 C 11.25 -12.878906 11.070312 -12.984375 10.84375 -13.109375 C 10.625 -13.242188 10.207031 -13.421875 9.59375 -13.640625 C 8.976562 -13.867188 8.40625 -13.984375 7.875 -13.984375 C 7.226562 -13.984375 6.722656 -13.84375 6.359375 -13.5625 C 6.003906 -13.289062 5.828125 -12.914062 5.828125 -12.4375 C 5.828125 -12.195312 5.910156 -11.976562 6.078125 -11.78125 C 6.242188 -11.582031 6.53125 -11.363281 6.9375 -11.125 C 7.34375 -10.894531 7.695312 -10.710938 8 -10.578125 C 8.3125 -10.441406 8.785156 -10.234375 9.421875 -9.953125 C 10.535156 -9.472656 11.488281 -8.828125 12.28125 -8.015625 C 13.070312 -7.203125 13.46875 -6.28125 13.46875 -5.25 C 13.46875 -4.257812 13.285156 -3.394531 12.921875 -2.65625 C 12.566406 -1.914062 12.078125 -1.335938 11.453125 -0.921875 C 10.835938 -0.503906 10.15625 -0.195312 9.40625 0 C 8.65625 0.207031 7.84375 0.3125 6.96875 0.3125 C 6.207031 0.3125 5.460938 0.234375 4.734375 0.078125 C 4.015625 -0.0664062 3.410156 -0.253906 2.921875 -0.484375 C 2.429688 -0.722656 1.992188 -0.953125 1.609375 -1.171875 C 1.222656 -1.390625 0.9375 -1.578125 0.75 -1.734375 L 0.484375 -1.96875 L 2.453125 -5.265625 C 2.617188 -5.128906 2.847656 -4.953125 3.140625 -4.734375 C 3.429688 -4.515625 3.945312 -4.222656 4.6875 -3.859375 C 5.4375 -3.503906 6.097656 -3.328125 6.671875 -3.328125 C 8.328125 -3.328125 9.15625 -3.890625 9.15625 -5.015625 C 9.15625 -5.253906 9.09375 -5.472656 8.96875 -5.671875 C 8.851562 -5.878906 8.644531 -6.082031 8.34375 -6.28125 C 8.050781 -6.476562 7.789062 -6.632812 7.5625 -6.75 C 7.332031 -6.875 6.953125 -7.054688 6.421875 -7.296875 C 5.898438 -7.546875 5.515625 -7.734375 5.265625 -7.859375 C 4.222656 -8.378906 3.414062 -9.023438 2.84375 -9.796875 C 2.269531 -10.566406 1.984375 -11.398438 1.984375 -12.296875 C 1.984375 -13.835938 2.554688 -15.097656 3.703125 -16.078125 C 4.847656 -17.066406 6.148438 -17.5625 7.609375 -17.5625 Z M 7.609375 -17.5625 "/></g></g></g><g fill="#ffffff" fill-opacity="1"><g transform="translate(93.423108, 28.383196)"><g><path d="M 10.015625 -17.25 L 16.96875 0 L 12.75 0 L 11.484375 -3.453125 L 4.90625 -3.453125 L 3.640625 0 L -0.578125 0 L 6.375 -17.25 Z M 10.140625 -6.90625 L 8.21875 -11.921875 L 8.171875 -11.921875 L 6.25 -6.90625 Z M 10.140625 -6.90625 "/></g></g></g><g fill="#ffffff" fill-opacity="1"><g transform="translate(109.806999, 28.383196)"><g><path d="M 5.3125 -20.40625 L 9.546875 -24.078125 L 11.453125 -21.6875 L 6.484375 -18.796875 Z M 10.578125 -17.25 L 10.578125 -7.28125 C 10.578125 -5.882812 10.359375 -4.910156 9.921875 -4.359375 C 9.484375 -3.816406 8.769531 -3.546875 7.78125 -3.546875 C 6.789062 -3.546875 6.070312 -3.816406 5.625 -4.359375 C 5.1875 -4.910156 4.96875 -5.882812 4.96875 -7.28125 L 4.96875 -17.25 L 1.046875 -17.25 L 1.046875 -6.125 C 1.046875 -4.007812 1.613281 -2.40625 2.75 -1.3125 C 3.894531 -0.226562 5.566406 0.3125 7.765625 0.3125 C 9.972656 0.3125 11.648438 -0.226562 12.796875 -1.3125 C 13.941406 -2.40625 14.515625 -4.007812 14.515625 -6.125 L 14.515625 -17.25 Z M 10.578125 -17.25 "/></g></g></g><g fill="#ffffff" fill-opacity="1"><g transform="translate(125.354971, 28.383196)"><g><path d="M 1.25 -17.25 L 6.25 -17.25 C 8.644531 -17.25 10.691406 -16.425781 12.390625 -14.78125 C 14.097656 -13.144531 14.953125 -11.097656 14.953125 -8.640625 C 14.953125 -6.148438 14.101562 -4.085938 12.40625 -2.453125 C 10.71875 -0.816406 8.664062 0 6.25 0 L 1.25 0 Z M 5.1875 -3.515625 L 5.796875 -3.515625 C 7.222656 -3.515625 8.394531 -4 9.3125 -4.96875 C 10.226562 -5.9375 10.691406 -7.148438 10.703125 -8.609375 C 10.703125 -10.078125 10.242188 -11.296875 9.328125 -12.265625 C 8.421875 -13.242188 7.242188 -13.734375 5.796875 -13.734375 L 5.1875 -13.734375 Z M 5.1875 -3.515625 "/></g></g></g><g fill="#ffffff" fill-opacity="1"><g transform="translate(140.777554, 28.383196)"><g><path d="M 11.125 -17.25 L 11.125 -13.796875 L 5.1875 -13.796875 L 5.1875 -10.375 L 10.875 -10.375 L 10.875 -6.921875 L 5.1875 -6.921875 L 5.1875 -3.453125 L 11.125 -3.453125 L 11.125 0 L 1.25 0 L 1.25 -17.25 Z M 11.125 -17.25 "/></g></g></g></svg>